<svg xmlns="http://www.w3.org/2000/svg" viewBox="0 0 472.35 472.54"><defs><style>.cls-1{opacity:0.5;}.cls-2{fill:#734cc1;}</style></defs><g id="Layer_2" data-name="Layer 2"><g id="LOGO-TEXT-OP-1"><g class="cls-1"><path class="cls-2" d="M331.76,185.59a45,45,0,0,1-31.82-76.82l95.59-95.59a45,45,0,1,1,63.64,63.64l-95.59,95.59A44.83,44.83,0,0,1,331.76,185.59Z"/><path class="cls-2" d="M331.76,287a45,45,0,0,0-31.82,76.82l95.59,95.59a45,45,0,1,0,63.64-63.64l-95.59-95.59A44.87,44.87,0,0,0,331.76,287Z"/><path class="cls-2" d="M140.59,185.59a45,45,0,0,0,31.82-76.82L76.82,13.18A45,45,0,0,0,13.18,76.82l95.59,95.59A44.83,44.83,0,0,0,140.59,185.59Z"/><path class="cls-2" d="M140.59,287a45,45,0,0,1,31.82,76.82L76.82,459.36a45,45,0,0,1-63.64-63.64l95.59-95.59A44.87,44.87,0,0,1,140.59,287Z"/></g><circle class="cls-2" cx="427.35" cy="45" r="45"/><circle class="cls-2" cx="427.35" cy="427.54" r="45"/><circle class="cls-2" cx="45" cy="45" r="45"/><circle class="cls-2" cx="45" cy="427.54" r="45"/></g></g></svg>